# xmcd
#
# Track frame offsets: 
#        150
#        12989
#        26072
#        37303
#        49390
#        61078
#        73078
#        83168
#        94801
#        106455
#        117757
#        131696
#        146324
#        156146
#        167895
#        178091
#        191760
#        202263
#        216217
#        227764
#        240844
#        253038
#        264970
#        278935
#
# Disc length: 3883 seconds
#
# Revision: 0
# Processed by: cddbd v1.5.2PL0 Copyright (c) Steve Scherf et al.
# Submitted via: ExactAudioCopy v1.3
#
DISCID=630f2918
DTITLE=Little Jimmy Dickens, 1960 - 1962 - 4 Classic Albums Plus Single
DTITLE=s 1954-62_CD2
DYEAR=2015
DGENRE=Country
TTITLE0=Little Jimmy Dickens, "Big Songs By L.J. Dickens" 1960 - John 
TTITLE0=Henry
TTITLE1=Little Jimmy Dickens, "Big Songs By L.J. Dickens" 1960 - I Cri
TTITLE1=ed Again
TTITLE2=Little Jimmy Dickens, "Big Songs By L.J. Dickens" 1960 - Tomor
TTITLE2=row Never Comes
TTITLE3=Little Jimmy Dickens, "Big Songs By L.J. Dickens" 1960 - Singi
TTITLE3=ng Waterfall
TTITLE4=Little Jimmy Dickens, "Big Songs By L.J. Dickens" 1960 - Carel
TTITLE4=ess Darlin'
TTITLE5=Little Jimmy Dickens, "Big Songs By L.J. Dickens" 1960 - We Co
TTITLE5=uld
TTITLE6=Little Jimmy Dickens, "Big Songs By L.J. Dickens" 1960 - Fire 
TTITLE6=Ball Mail
TTITLE7=Little Jimmy Dickens, "Big Songs By L.J. Dickens" 1960 - Have 
TTITLE7=I Told You Lately That I Love You
TTITLE8=Little Jimmy Dickens, "Big Songs By L.J. Dickens" 1960 - Pins 
TTITLE8=And Needles
TTITLE9=Little Jimmy Dickens, "Big Songs By L.J. Dickens" 1960 - Tomor
TTITLE9=rows Just Another Day To Cry
TTITLE10=Little Jimmy Dickens, "Big Songs By L.J. Dickens" 1960 - A Pe
TTITLE10=tal From A Faded Rose
TTITLE11=Little Jimmy Dickens, "Big Songs By L.J. Dickens" 1960 - My H
TTITLE11=eart's Bouquet
TTITLE12=Little Jimmy Dickens, "Out Behind The Barn" 1962 - Out Behind
TTITLE12=The Barn
TTITLE13=Little Jimmy Dickens, "Out Behind The Barn" 1962 - It's Me Th
TTITLE13=at Hurts The Most
TTITLE14=Little Jimmy Dickens, "Out Behind The Barn" 1962 - Night Trai
TTITLE14=n To Memphis
TTITLE15=Little Jimmy Dickens, "Out Behind The Barn" 1962 - I'm Making
TTITLE15=Love To A Stranger
TTITLE16=Little Jimmy Dickens, "Out Behind The Barn" 1962 - Slowly
TTITLE17=Little Jimmy Dickens, "Out Behind The Barn" 1962 - The Whole 
TTITLE17=World Seems Different
TTITLE18=Little Jimmy Dickens, "Out Behind The Barn" 1962 - Honky Tonk
TTITLE18=Troubles
TTITLE19=Little Jimmy Dickens, "Out Behind The Barn" 1962 - The Violet
TTITLE19=And A Rose
TTITLE20=Little Jimmy Dickens, "Out Behind The Barn" 1962 - Twenty Cig
TTITLE20=arettes
TTITLE21=Little Jimmy Dickens, "Out Behind The Barn" 1962 - String, Er
TTITLE21=aser And Blotter
TTITLE22=Little Jimmy Dickens, "Out Behind The Barn" 1962 - Before I M
TTITLE22=et You
TTITLE23=Little Jimmy Dickens, "Out Behind The Barn" 1962 - The Best Y
TTITLE23=ears Of Your Life
EXTD=
EXTT0=
EXTT1=
EXTT2=
EXTT3=
EXTT4=
EXTT5=
EXTT6=
EXTT7=
EXTT8=
EXTT9=
EXTT10=
EXTT11=
EXTT12=
EXTT13=
EXTT14=
EXTT15=
EXTT16=
EXTT17=
EXTT18=
EXTT19=
EXTT20=
EXTT21=
EXTT22=
EXTT23=
PLAYORDER=
